Patient4_TMGait_0pt2_03_left_22_GRF.mot
version=1
nRows=26
nColumns=19
inDegrees=no
endheader
time	F1x	F1y	F1z	M1x	M1y	M1z	F2x	F2y	F2z	M2x	M2y	M2z	EC1x	EC1y	EC1z	EC2x	EC2y	EC2z
45.99	7.114	1.3742	-0.49387	-0.14758	0.76828	3.3565	-4.8328	759.7486	-49.7615	248.2109	62.3307	849.113	-0.0592	0.0182	-0.0073	-0.0462	0.0165	0.9585
46.011	4.7885	1.2815	-0.10094	-0.21131	0.23961	2.7169	-11.001	781.2754	-50.3537	255.5742	64.6704	872.859	-0.0592	0.0182	-0.0073	-0.0462	0.0165	0.9585
46.032	2.7032	1.0907	0.18896	-0.2307	-0.19615	2.0472	-16.8941	807.0509	-50.9633	264.3838	66.8782	900.8284	-0.0592	0.0182	-0.0073	-0.0462	0.0165	0.9585
46.053	1.0405	0.88592	0.38635	-0.22628	-0.52433	1.4619	-21.8349	834.8839	-51.4703	273.9117	68.5833	930.4328	-0.0592	0.0182	-0.0073	-0.0462	0.0165	0.9585
46.074	-0.16152	0.70988	0.511	-0.21085	-0.75277	1.009	-25.3465	861.5711	-51.735	283.0923	69.4473	958.0596	-0.0592	0.0182	-0.0073	-0.0462	0.0165	0.9585
46.095	-0.9487	0.56794	0.58553	-0.18905	-0.90267	0.68556	-27.2244	883.3961	-51.6271	290.6806	69.2355	979.6481	-0.0592	0.0182	-0.0073	-0.0462	0.0165	0.9585
46.116	-1.4071	0.44286	0.63017	-0.15846	-1.0018	0.45354	-27.5163	896.9112	-51.0578	295.5124	67.8595	991.5566	-0.0592	0.0182	-0.0073	-0.0462	0.0165	0.9585
46.137	-1.6353	0.29755	0.66323	-0.11005	-1.0789	0.24863	-26.4579	899.7755	-49.9756	296.7884	65.352	991.4488	-0.0592	0.0182	-0.0073	-0.0462	0.0165	0.9585
46.158	-1.7255	0.078261	0.69937	-0.029211	-1.1567	-0.0061012	-24.3709	891.2958	-48.3797	294.2585	61.8464	978.8154	-0.0592	0.0182	-0.0073	-0.0462	0.0165	0.9585
46.179	-1.7524	-0.27654	0.7437	0.10311	-1.2473	-0.39336	-21.5764	872.5226	-46.3444	288.2557	57.5685	955.0089	-0.0592	0.0182	-0.0073	-0.0462	0.0165	0.9585
46.2	-1.7669	-0.82572	0.79166	0.30484	-1.3507	-0.98856	-18.3303	845.9904	-44.0309	279.6109	52.8285	922.9061	-0.0592	0.0182	-0.0073	-0.0462	0.0165	0.9585
46.221	-1.7932	-1.616	0.82871	0.58986	-1.4501	-1.8564	-14.7965	815.1927	-41.66	269.4805	47.9789	886.3173	-0.0592	0.0182	-0.0073	-0.0462	0.0165	0.9585
46.242	-1.8255	-2.6594	0.82763	0.96117	-1.5074	-3.0213	-11.0837	783.9147	-39.4569	259.1263	43.3566	849.2824	-0.0592	0.0182	-0.0073	-0.0462	0.0165	0.9585
46.263	-1.8306	-3.9083	0.74748	1.4006	-1.4605	-4.4342	-7.2862	755.5831	-37.6021	249.6997	39.2328	815.3988	-0.0592	0.0182	-0.0073	-0.0462	0.0165	0.9585
46.284	-1.7471	-5.2182	0.5347	1.8544	-1.2244	-5.9276	-3.483	732.819	-36.2	242.0918	35.773	787.3595	-0.0592	0.0182	-0.0073	-0.0462	0.0165	0.9585
46.305	-1.4886	-6.2976	0.12681	2.2155	-0.69178	-7.1696	0.26977	717.1988	-35.2724	236.8494	33.0307	766.7225	-0.0592	0.0182	-0.0073	-0.0462	0.0165	0.9585
46.326	-0.94921	-6.6567	-0.53943	2.3063	0.25485	-7.6079	3.9507	709.167	-34.7827	234.1432	30.9699	753.8483	-0.0592	0.0182	-0.0073	-0.0462	0.0165	0.9585
46.347	-0.012327	-5.5741	-1.5149	1.8677	1.7222	-6.4299	7.5823	708.0584	-34.6569	233.7689	29.4856	747.9503	-0.0592	0.0182	-0.0073	-0.0462	0.0165	0.9585
46.368	1.4272	-2.0915	-2.8154	0.55783	3.7707	-2.556	11.1882	712.1681	-34.7942	235.1674	28.4311	747.207	-0.0592	0.0182	-0.0073	-0.0462	0.0165	0.9585
46.389	3.4326	4.9448	-4.3841	-2.0318	6.3569	5.3189	14.7329	718.9173	-35.077	237.4794	27.6544	748.9797	-0.0592	0.0182	-0.0073	-0.0462	0.0165	0.9585
46.41	5.9692	16.7461	-6.0409	-6.3232	9.2588	18.5777	18.0758	725.1412	-35.3796	239.6424	27.0324	750.1344	-0.0592	0.0182	-0.0073	-0.0462	0.0165	0.9585
46.431	8.8265	34.3142	-7.4243	-12.6518	11.9835	38.3747	20.9691	727.5375	-35.5795	240.5429	26.4879	747.5157	-0.0592	0.0182	-0.0073	-0.0462	0.0165	0.9585
46.452	11.5306	58.0053	-7.9347	-21.1087	13.6658	65.141	23.0972	723.1512	-35.563	239.1832	25.9871	738.4093	-0.0592	0.0182	-0.0073	-0.0462	0.0165	0.9585
46.473	13.287	87.0611	-6.7812	-31.3773	13.1052	98.0591	24.1567	709.9052	-35.2134	234.8668	25.5005	721.0169	-0.0592	0.0182	-0.0073	-0.0462	0.0165	0.9585
46.494	13.5815	119.93	-3.4602	-42.8765	9.5316	135.3979	23.9717	687.1869	-34.4171	227.3965	24.9763	694.9617	-0.0592	0.0182	-0.0073	-0.0462	0.0165	0.9585
46.515	12.5321	155.2776	1.6707	-55.1595	3.3942	175.6048	22.568	656.1181	-33.099	217.1615	24.3438	661.4976	-0.0592	0.0182	-0.0073	-0.0462	0.0165	0.9585
